<?xml version="1.0" encoding="UTF-8"?>
<svg xmlns="http://www.w3.org/2000/svg" width="420.0mm" height="297.0mm" viewBox="0 0 420.0 297.0">
<defs>
<pattern id="metall" width="2.4" height="2.4" patternTransform="rotate(45)" patternUnits="userSpaceOnUse">
  <rect width="2.4" height="2.4" fill="#dce6f2"/>
  <line x1="0" y1="0" x2="0" y2="2.4" stroke="#2b5c96" stroke-width="0.28"/>
</pattern>
<pattern id="sand" width="3.2" height="3.2" patternUnits="userSpaceOnUse">
  <rect width="3.2" height="3.2" fill="#f3ece1"/>
  <circle cx="0.8" cy="0.8" r="0.24" fill="#c2ab8c"/>
  <circle cx="2.4" cy="2.2" r="0.24" fill="#c2ab8c"/>
</pattern>
<pattern id="kern" width="2.6" height="2.6" patternUnits="userSpaceOnUse">
  <rect width="2.6" height="2.6" fill="#f6e2a8"/>
  <circle cx="0.7" cy="0.7" r="0.26" fill="#c9a63c"/>
  <circle cx="2.0" cy="1.9" r="0.26" fill="#c9a63c"/>
</pattern>
<pattern id="kuehl" width="2.0" height="2.0" patternTransform="rotate(-45)" patternUnits="userSpaceOnUse">
  <rect width="2.0" height="2.0" fill="#c3c8ce"/>
  <line x1="0" y1="0" x2="0" y2="2" stroke="#5b6570" stroke-width="0.4"/>
</pattern>
<style>
  text { font-family:"DejaVu Sans",Arial,sans-serif; fill:#14243a; }
  .voll{stroke:#14243a;stroke-width:0.5;fill:none;}
  .duenn{stroke:#14243a;stroke-width:0.28;fill:none;}
  .verdeckt{stroke:#14243a;stroke-width:0.3;fill:none;stroke-dasharray:2.5 1.5;}
  .kasten{stroke:#14243a;stroke-width:0.8;fill:none;}
  .mitte{stroke:#b03030;stroke-width:0.28;fill:none;stroke-dasharray:8 1.5 1.2 1.5;}
  .teilung{stroke:#0a7a5a;stroke-width:0.8;fill:none;}
  .masz{stroke:#14243a;stroke-width:0.25;fill:none;}
  .hilf{stroke:#14243a;stroke-width:0.18;fill:none;}
  .hinweis{stroke:#14243a;stroke-width:0.25;fill:none;}
  .pfeil{fill:#14243a;stroke:none;}
  .pfeil2{fill:#14243a;stroke:none;}
  .rahmen{stroke:#14243a;stroke-width:0.7;fill:none;}
  .box{stroke:#8fa2bb;stroke-width:0.35;fill:#f7f9fc;}
  .warn{fill:#b03030;}
  .sub{fill:#4a5b70;}
  .fluss{stroke:#b03030;stroke-width:0.9;fill:none;}
</style></defs>
<rect width="420.0" height="297.0" fill="#ffffff"/>
<rect x="10.00" y="10.00" width="400.00" height="277.00" class="rahmen" />
<text x="16.00" y="20.00" font-size="6.2" text-anchor="start" class="txt" font-weight="bold">Formaufbau &#8212; Gussteil im geschlossenen Formkasten (Version O)</text>
<text x="16.00" y="26.00" font-size="3.1" text-anchor="start" class="sub">Bachelorprojekt Metallguss &#183; Handformen mit liegendem Kern &#183; Zinn &#183; Ma&#223;stab 1:1, Ma&#223;e in mm</text>
<text x="404.00" y="20.00" font-size="3.4" text-anchor="end" class="warn" font-weight="bold">VORSCHLAG &#8212; nicht freigegeben</text>
<text x="404.00" y="25.50" font-size="2.6" text-anchor="end" class="sub">Gie&#223;system weicht bewusst vom Bauteilkonzept ab, siehe Kasten unten rechts</text>
<line x1="16.00" y1="29.50" x2="404.00" y2="29.50" class="masz"/>
<rect x="23.00" y="54.00" width="106.00" height="88.00" class="kasten" fill="#eef1f5"/>
<rect x="23.00" y="142.00" width="106.00" height="88.00" class="kasten" fill="#eef1f5"/>
<rect x="31.00" y="62.00" width="90.00" height="80.00" class="duenn" fill="url(#sand)"/>
<rect x="31.00" y="142.00" width="90.00" height="80.00" class="duenn" fill="url(#sand)"/>
<path d="M 64.00 135.00 L 64.00 128.00 L 73.50 128.00 L 73.50 115.00 L 66.00 115.00 L 66.00 107.00 L 86.00 107.00 L 86.00 115.00 L 78.50 115.00 L 78.50 128.00 L 88.00 128.00 L 88.00 135.00 Z" class="voll" fill="url(#metall)"/>
<path d="M 64.00 149.00 L 64.00 156.00 L 73.50 156.00 L 73.50 169.00 L 66.00 169.00 L 66.00 177.00 L 86.00 177.00 L 86.00 169.00 L 78.50 169.00 L 78.50 156.00 L 88.00 156.00 L 88.00 149.00 Z" class="voll" fill="url(#metall)"/>
<rect x="69.00" y="62.00" width="14.00" height="45.00" class="voll" fill="url(#metall)"/>
<rect x="56.00" y="122.00" width="8.00" height="13.00" class="duenn" fill="url(#kuehl)"/>
<rect x="56.00" y="149.00" width="8.00" height="13.00" class="duenn" fill="url(#kuehl)"/>
<rect x="88.00" y="122.00" width="8.00" height="13.00" class="duenn" fill="url(#kuehl)"/>
<rect x="88.00" y="149.00" width="8.00" height="13.00" class="duenn" fill="url(#kuehl)"/>
<rect x="52.00" y="135.00" width="48.00" height="14.00" class="voll" fill="url(#kern)"/>
<line x1="64.00" y1="135.00" x2="64.00" y2="149.00" class="verdeckt"/>
<line x1="88.00" y1="135.00" x2="88.00" y2="149.00" class="verdeckt"/>
<line x1="17.00" y1="142.00" x2="135.00" y2="142.00" class="teilung"/>
<text x="17.00" y="139.80" font-size="2.6" text-anchor="start" class="sub">Teilungsebene = Achsebene</text>
<rect x="25.60" y="133.00" width="2.80" height="18.00" class="duenn" fill="#9aa7b6"/>
<rect x="123.60" y="133.00" width="2.80" height="18.00" class="duenn" fill="#9aa7b6"/>
<line x1="31.00" y1="115.00" x2="52.00" y2="115.00" class="masz"/>
<path d="M 31.00 115.00 L 33.40 114.16 L 33.40 115.84 Z" class="pfeil"/>
<path d="M 52.00 115.00 L 49.60 115.84 L 49.60 114.16 Z" class="pfeil"/>
<text x="41.50" y="113.80" font-size="2.6" text-anchor="middle" class="txt">21</text>
<line x1="100.00" y1="115.00" x2="121.00" y2="115.00" class="masz"/>
<path d="M 100.00 115.00 L 102.40 114.16 L 102.40 115.84 Z" class="pfeil"/>
<path d="M 121.00 115.00 L 118.60 115.84 L 118.60 114.16 Z" class="pfeil"/>
<text x="110.50" y="113.80" font-size="2.6" text-anchor="middle" class="txt">21</text>
<line x1="50.00" y1="62.00" x2="50.00" y2="107.00" class="masz"/>
<path d="M 50.00 62.00 L 50.84 64.40 L 49.16 64.40 Z" class="pfeil"/>
<path d="M 50.00 107.00 L 49.16 104.60 L 50.84 104.60 Z" class="pfeil"/>
<text x="48.40" y="85.50" font-size="2.6" text-anchor="end" class="txt">45</text>
<line x1="50.00" y1="177.00" x2="50.00" y2="222.00" class="masz"/>
<path d="M 50.00 177.00 L 50.84 179.40 L 49.16 179.40 Z" class="pfeil"/>
<path d="M 50.00 222.00 L 49.16 219.60 L 50.84 219.60 Z" class="pfeil"/>
<text x="48.40" y="200.50" font-size="2.6" text-anchor="end" class="txt">45</text>
<line x1="31.00" y1="71.00" x2="121.00" y2="71.00" class="masz"/>
<path d="M 31.00 71.00 L 33.40 70.16 L 33.40 71.84 Z" class="pfeil"/>
<path d="M 121.00 71.00 L 118.60 71.84 L 118.60 70.16 Z" class="pfeil"/>
<text x="76.00" y="69.80" font-size="2.6" text-anchor="middle" class="txt">Kasten-Innenbreite 90</text>
<text x="76.00" y="78.00" font-size="2.6" text-anchor="middle" class="sub">Gie&#223;system siehe Schnitt B&#8211;B</text>
<text x="76.00" y="48.00" font-size="3.6" text-anchor="middle" class="txt" font-weight="bold">Schnitt A&#8211;A  &#183;  durch die Achse</text>
<text x="76.00" y="52.00" font-size="2.7" text-anchor="middle" class="sub">zeigt Kernlagerung, Speiser, K&#252;hleisen</text>
<line x1="38.00" y1="84.00" x2="46.00" y2="94.00" class="hinweis"/>
<circle cx="46.00" cy="94.00" r="0.7" class="pfeil2"/>
<circle cx="38.00" cy="84.00" r="3.1" fill="#ffffff" stroke="#14243a" stroke-width="0.4"/>
<text x="38.00" y="85.05" font-size="3.2" text-anchor="middle" class="txt" font-weight="bold">1</text>
<line x1="38.00" y1="200.00" x2="46.00" y2="190.00" class="hinweis"/>
<circle cx="46.00" cy="190.00" r="0.7" class="pfeil2"/>
<circle cx="38.00" cy="200.00" r="3.1" fill="#ffffff" stroke="#14243a" stroke-width="0.4"/>
<text x="38.00" y="201.05" font-size="3.2" text-anchor="middle" class="txt" font-weight="bold">2</text>
<line x1="12.00" y1="149.00" x2="27.00" y2="142.00" class="hinweis"/>
<circle cx="27.00" cy="142.00" r="0.7" class="pfeil2"/>
<circle cx="12.00" cy="149.00" r="3.1" fill="#ffffff" stroke="#14243a" stroke-width="0.4"/>
<text x="12.00" y="150.05" font-size="3.2" text-anchor="middle" class="txt" font-weight="bold">3</text>
<line x1="106.00" y1="90.00" x2="82.00" y2="107.00" class="hinweis"/>
<circle cx="82.00" cy="107.00" r="0.7" class="pfeil2"/>
<circle cx="106.00" cy="90.00" r="3.1" fill="#ffffff" stroke="#14243a" stroke-width="0.4"/>
<text x="106.00" y="91.05" font-size="3.2" text-anchor="middle" class="txt" font-weight="bold">4</text>
<line x1="76.00" y1="164.00" x2="76.00" y2="148.00" class="hinweis"/>
<circle cx="76.00" cy="148.00" r="0.7" class="pfeil2"/>
<circle cx="76.00" cy="164.00" r="3.1" fill="#ffffff" stroke="#14243a" stroke-width="0.4"/>
<text x="76.00" y="165.05" font-size="3.2" text-anchor="middle" class="txt" font-weight="bold">5</text>
<line x1="44.00" y1="162.00" x2="58.00" y2="148.00" class="hinweis"/>
<circle cx="58.00" cy="148.00" r="0.7" class="pfeil2"/>
<circle cx="44.00" cy="162.00" r="3.1" fill="#ffffff" stroke="#14243a" stroke-width="0.4"/>
<text x="44.00" y="163.05" font-size="3.2" text-anchor="middle" class="txt" font-weight="bold">6</text>
<line x1="100.00" y1="76.00" x2="81.00" y2="82.00" class="hinweis"/>
<circle cx="81.00" cy="82.00" r="0.7" class="pfeil2"/>
<circle cx="100.00" cy="76.00" r="3.1" fill="#ffffff" stroke="#14243a" stroke-width="0.4"/>
<text x="100.00" y="77.05" font-size="3.2" text-anchor="middle" class="txt" font-weight="bold">11</text>
<line x1="106.00" y1="176.00" x2="92.00" y2="156.00" class="hinweis"/>
<circle cx="92.00" cy="156.00" r="0.7" class="pfeil2"/>
<circle cx="106.00" cy="176.00" r="3.1" fill="#ffffff" stroke="#14243a" stroke-width="0.4"/>
<text x="106.00" y="177.05" font-size="3.2" text-anchor="middle" class="txt" font-weight="bold">13</text>
<line x1="138.00" y1="118.00" x2="125.00" y2="134.00" class="hinweis"/>
<circle cx="125.00" cy="134.00" r="0.7" class="pfeil2"/>
<circle cx="138.00" cy="118.00" r="3.1" fill="#ffffff" stroke="#14243a" stroke-width="0.4"/>
<text x="138.00" y="119.05" font-size="3.2" text-anchor="middle" class="txt" font-weight="bold">14</text>
<rect x="155.00" y="54.00" width="206.00" height="88.00" class="kasten" fill="#eef1f5"/>
<rect x="155.00" y="142.00" width="206.00" height="88.00" class="kasten" fill="#eef1f5"/>
<rect x="163.00" y="62.00" width="190.00" height="80.00" class="duenn" fill="url(#sand)"/>
<rect x="163.00" y="142.00" width="190.00" height="80.00" class="duenn" fill="url(#sand)"/>
<path d="M 223.00 142.00 a 35.0 35.0 0 1 0 70.0 0 a 35.0 35.0 0 1 0 -70.0 0 M 251.00 142.00 a 7.0 7.0 0 1 0 14.0 0 a 7.0 7.0 0 1 0 -14.0 0 Z" class="voll" fill="url(#metall)" fill-rule="evenodd"/>
<circle cx="258.00" cy="142.00" r="27.00" class="duenn" />
<circle cx="258.00" cy="142.00" r="14.00" class="duenn" />
<circle cx="258.00" cy="142.00" r="7.00" class="voll" fill="url(#kern)"/>
<rect x="183.00" y="62.00" width="10.00" height="80.00" class="voll" fill="url(#metall)"/>
<path d="M 179.00 62.00 L 183.00 71.00 L 193.00 71.00 L 197.00 62.00 Z" class="voll" fill="url(#metall)"/>
<rect x="188.00" y="138.00" width="25.00" height="8.00" class="voll" fill="url(#metall)"/>
<rect x="213.00" y="139.50" width="10.00" height="5.00" class="voll" fill="url(#metall)"/>
<rect x="251.00" y="62.00" width="14.00" height="45.00" class="voll" fill="url(#metall)"/>
<rect x="281.00" y="62.00" width="4.00" height="55.51" class="voll" fill="url(#metall)"/>
<line x1="149.00" y1="142.00" x2="367.00" y2="142.00" class="teilung"/>
<line x1="258.00" y1="58.00" x2="258.00" y2="226.00" class="mitte"/>
<line x1="188.00" y1="49.00" x2="188.00" y2="59.00" class="fluss"/>
<path d="M 188.00 59.00 L 186.88 55.80 L 189.12 55.80 Z" class="pfeil"/>
<text x="192.00" y="53.00" font-size="2.6" text-anchor="start" class="warn">Gie&#223;richtung</text>
<line x1="163.00" y1="197.00" x2="223.00" y2="197.00" class="masz"/>
<path d="M 163.00 197.00 L 165.40 196.16 L 165.40 197.84 Z" class="pfeil"/>
<path d="M 223.00 197.00 L 220.60 197.84 L 220.60 196.16 Z" class="pfeil"/>
<text x="193.00" y="195.80" font-size="2.6" text-anchor="middle" class="txt">60</text>
<line x1="293.00" y1="197.00" x2="353.00" y2="197.00" class="masz"/>
<path d="M 293.00 197.00 L 295.40 196.16 L 295.40 197.84 Z" class="pfeil"/>
<path d="M 353.00 197.00 L 350.60 197.84 L 350.60 196.16 Z" class="pfeil"/>
<text x="323.00" y="195.80" font-size="2.6" text-anchor="middle" class="txt">60</text>
<line x1="200.00" y1="62.00" x2="200.00" y2="107.00" class="masz"/>
<path d="M 200.00 62.00 L 200.84 64.40 L 199.16 64.40 Z" class="pfeil"/>
<path d="M 200.00 107.00 L 199.16 104.60 L 200.84 104.60 Z" class="pfeil"/>
<text x="198.40" y="85.50" font-size="2.6" text-anchor="end" class="txt">45</text>
<line x1="200.00" y1="177.00" x2="200.00" y2="222.00" class="masz"/>
<path d="M 200.00 177.00 L 200.84 179.40 L 199.16 179.40 Z" class="pfeil"/>
<path d="M 200.00 222.00 L 199.16 219.60 L 200.84 219.60 Z" class="pfeil"/>
<text x="198.40" y="200.50" font-size="2.6" text-anchor="end" class="txt">45</text>
<line x1="163.00" y1="216.00" x2="353.00" y2="216.00" class="masz"/>
<path d="M 163.00 216.00 L 165.40 215.16 L 165.40 216.84 Z" class="pfeil"/>
<path d="M 353.00 216.00 L 350.60 216.84 L 350.60 215.16 Z" class="pfeil"/>
<text x="258.00" y="214.80" font-size="2.6" text-anchor="middle" class="txt">Kasten-Innenl&#228;nge 190</text>
<text x="258.00" y="48.00" font-size="3.6" text-anchor="middle" class="txt" font-weight="bold">Schnitt B&#8211;B  &#183;  senkrecht zur Achse</text>
<text x="258.00" y="52.00" font-size="2.7" text-anchor="middle" class="sub">zeigt das Gie&#223;system in der Teilungsebene</text>
<line x1="166.00" y1="68.00" x2="182.00" y2="66.00" class="hinweis"/>
<circle cx="182.00" cy="66.00" r="0.7" class="pfeil2"/>
<circle cx="166.00" cy="68.00" r="3.1" fill="#ffffff" stroke="#14243a" stroke-width="0.4"/>
<text x="166.00" y="69.05" font-size="3.2" text-anchor="middle" class="txt" font-weight="bold">7</text>
<line x1="166.00" y1="96.00" x2="183.00" y2="102.00" class="hinweis"/>
<circle cx="183.00" cy="102.00" r="0.7" class="pfeil2"/>
<circle cx="166.00" cy="96.00" r="3.1" fill="#ffffff" stroke="#14243a" stroke-width="0.4"/>
<text x="166.00" y="97.05" font-size="3.2" text-anchor="middle" class="txt" font-weight="bold">8</text>
<line x1="196.00" y1="157.00" x2="202.00" y2="145.00" class="hinweis"/>
<circle cx="202.00" cy="145.00" r="0.7" class="pfeil2"/>
<circle cx="196.00" cy="157.00" r="3.1" fill="#ffffff" stroke="#14243a" stroke-width="0.4"/>
<text x="196.00" y="158.05" font-size="3.2" text-anchor="middle" class="txt" font-weight="bold">9</text>
<line x1="212.00" y1="158.00" x2="218.00" y2="144.00" class="hinweis"/>
<circle cx="218.00" cy="144.00" r="0.7" class="pfeil2"/>
<circle cx="212.00" cy="158.00" r="3.1" fill="#ffffff" stroke="#14243a" stroke-width="0.4"/>
<text x="212.00" y="159.05" font-size="3.2" text-anchor="middle" class="txt" font-weight="bold">10</text>
<line x1="242.00" y1="86.00" x2="251.00" y2="92.00" class="hinweis"/>
<circle cx="251.00" cy="92.00" r="0.7" class="pfeil2"/>
<circle cx="242.00" cy="86.00" r="3.1" fill="#ffffff" stroke="#14243a" stroke-width="0.4"/>
<text x="242.00" y="87.05" font-size="3.2" text-anchor="middle" class="txt" font-weight="bold">11</text>
<line x1="294.00" y1="90.00" x2="285.00" y2="96.00" class="hinweis"/>
<circle cx="285.00" cy="96.00" r="0.7" class="pfeil2"/>
<circle cx="294.00" cy="90.00" r="3.1" fill="#ffffff" stroke="#14243a" stroke-width="0.4"/>
<text x="294.00" y="91.05" font-size="3.2" text-anchor="middle" class="txt" font-weight="bold">12</text>
<line x1="258.00" y1="160.00" x2="258.00" y2="148.00" class="hinweis"/>
<circle cx="258.00" cy="148.00" r="0.7" class="pfeil2"/>
<circle cx="258.00" cy="160.00" r="3.1" fill="#ffffff" stroke="#14243a" stroke-width="0.4"/>
<text x="258.00" y="161.05" font-size="3.2" text-anchor="middle" class="txt" font-weight="bold">5</text>
<line x1="304.00" y1="172.00" x2="288.00" y2="160.00" class="hinweis"/>
<circle cx="288.00" cy="160.00" r="0.7" class="pfeil2"/>
<circle cx="304.00" cy="172.00" r="3.1" fill="#ffffff" stroke="#14243a" stroke-width="0.4"/>
<text x="304.00" y="173.05" font-size="3.2" text-anchor="middle" class="txt" font-weight="bold">4</text>
<rect x="22.00" y="236.00" width="388.00" height="51.00" class="box" />
<text x="26.00" y="242.50" font-size="3.5" text-anchor="start" class="txt" font-weight="bold">Legende</text>
<circle cx="28.60" cy="248.00" r="2.6" fill="#ffffff" stroke="#14243a" stroke-width="0.35"/>
<text x="28.60" y="249.05" font-size="2.7" text-anchor="middle" class="txt" font-weight="bold">1</text>
<text x="33.50" y="249.00" font-size="2.7" text-anchor="start" class="txt">Oberkasten, verdichteter Formsand</text>
<circle cx="28.60" cy="255.00" r="2.6" fill="#ffffff" stroke="#14243a" stroke-width="0.35"/>
<text x="28.60" y="256.05" font-size="2.7" text-anchor="middle" class="txt" font-weight="bold">2</text>
<text x="33.50" y="256.00" font-size="2.7" text-anchor="start" class="txt">Unterkasten, verdichteter Formsand</text>
<circle cx="28.60" cy="262.00" r="2.6" fill="#ffffff" stroke="#14243a" stroke-width="0.35"/>
<text x="28.60" y="263.05" font-size="2.7" text-anchor="middle" class="txt" font-weight="bold">3</text>
<text x="33.50" y="263.00" font-size="2.7" text-anchor="start" class="txt">Teilungsebene = Achsebene (gr&#252;n)</text>
<circle cx="28.60" cy="269.00" r="2.6" fill="#ffffff" stroke="#14243a" stroke-width="0.35"/>
<text x="28.60" y="270.05" font-size="2.7" text-anchor="middle" class="txt" font-weight="bold">4</text>
<text x="33.50" y="270.00" font-size="2.7" text-anchor="start" class="txt">Formhohlraum = Gussteil, Kranz &#216;70 / Steg 5 / Nabe &#216;28</text>
<circle cx="28.60" cy="276.00" r="2.6" fill="#ffffff" stroke="#14243a" stroke-width="0.35"/>
<text x="28.60" y="277.05" font-size="2.7" text-anchor="middle" class="txt" font-weight="bold">5</text>
<text x="33.50" y="277.00" font-size="2.7" text-anchor="start" class="txt">Sandkern &#216;14, liegend &#8212; steht nicht!</text>
<circle cx="142.60" cy="248.00" r="2.6" fill="#ffffff" stroke="#14243a" stroke-width="0.35"/>
<text x="142.60" y="249.05" font-size="2.7" text-anchor="middle" class="txt" font-weight="bold">6</text>
<text x="147.50" y="249.00" font-size="2.7" text-anchor="start" class="txt">Kernmarke &#216;14 &#215; 12, dahinter 21 mm Sand</text>
<circle cx="142.60" cy="255.00" r="2.6" fill="#ffffff" stroke="#14243a" stroke-width="0.35"/>
<text x="142.60" y="256.05" font-size="2.7" text-anchor="middle" class="txt" font-weight="bold">7</text>
<text x="147.50" y="256.00" font-size="2.7" text-anchor="start" class="txt">Gie&#223;trichter</text>
<circle cx="142.60" cy="262.00" r="2.6" fill="#ffffff" stroke="#14243a" stroke-width="0.35"/>
<text x="142.60" y="263.05" font-size="2.7" text-anchor="middle" class="txt" font-weight="bold">8</text>
<text x="147.50" y="263.00" font-size="2.7" text-anchor="start" class="txt">Einguss &#216;10, senkrecht</text>
<circle cx="142.60" cy="269.00" r="2.6" fill="#ffffff" stroke="#14243a" stroke-width="0.35"/>
<text x="142.60" y="270.05" font-size="2.7" text-anchor="middle" class="txt" font-weight="bold">9</text>
<text x="147.50" y="270.00" font-size="2.7" text-anchor="start" class="txt">Querlauf in der Teilungsebene (Unterkasten)</text>
<circle cx="142.60" cy="276.00" r="2.6" fill="#ffffff" stroke="#14243a" stroke-width="0.35"/>
<text x="142.60" y="277.05" font-size="2.7" text-anchor="middle" class="txt" font-weight="bold">10</text>
<text x="147.50" y="277.00" font-size="2.7" text-anchor="start" class="txt">Anschnitt &#216;5, seitlich in den Kranz</text>
<circle cx="256.60" cy="248.00" r="2.6" fill="#ffffff" stroke="#14243a" stroke-width="0.35"/>
<text x="256.60" y="249.05" font-size="2.7" text-anchor="middle" class="txt" font-weight="bold">11</text>
<text x="261.50" y="249.00" font-size="2.7" text-anchor="start" class="txt">Speiser &#216;14 oben auf dem Kranz (h&#246;chster Punkt)</text>
<circle cx="256.60" cy="255.00" r="2.6" fill="#ffffff" stroke="#14243a" stroke-width="0.35"/>
<text x="256.60" y="256.05" font-size="2.7" text-anchor="middle" class="txt" font-weight="bold">12</text>
<text x="261.50" y="256.00" font-size="2.7" text-anchor="start" class="txt">Windpfeife &#216;4, versetzt zum Anschnitt</text>
<circle cx="256.60" cy="262.00" r="2.6" fill="#ffffff" stroke="#14243a" stroke-width="0.35"/>
<text x="256.60" y="263.05" font-size="2.7" text-anchor="middle" class="txt" font-weight="bold">13</text>
<text x="261.50" y="263.00" font-size="2.7" text-anchor="start" class="txt">K&#252;hleisen: Alu-Ring &#216;40/&#216;14 &#215; 8, je Nabenstirnseite (Vorschlag)</text>
<circle cx="256.60" cy="269.00" r="2.6" fill="#ffffff" stroke="#14243a" stroke-width="0.35"/>
<text x="256.60" y="270.05" font-size="2.7" text-anchor="middle" class="txt" font-weight="bold">14</text>
<text x="261.50" y="270.00" font-size="2.7" text-anchor="start" class="txt">F&#252;hrungsstifte des Formkastens</text>
<rect x="360.00" y="245.00" width="46.00" height="40.00" class="box" />
<text x="362.00" y="250.00" font-size="2.7" text-anchor="start" class="txt" font-weight="bold">Warum kein Speiser</text>
<text x="362.00" y="254.00" font-size="2.7" text-anchor="start" class="txt" font-weight="bold">&#252;ber der Nabe?</text>
<text x="362.00" y="258.50" font-size="2.35" text-anchor="start" class="txt">Der Kranz steht dar&#252;ber im Weg;</text>
<text x="362.00" y="261.90" font-size="2.35" text-anchor="start" class="txt">es bliebe nur &#216;6 &#8594; M = 1,5 mm.</text>
<text x="362.00" y="265.30" font-size="2.35" text-anchor="start" class="txt">N&#246;tig: M &#8805; 1,2 &#183; 2,7 = 3,2 mm.</text>
<text x="362.00" y="268.70" font-size="2.35" text-anchor="start" class="txt">Deshalb Speiser &#216;14 auf den</text>
<text x="362.00" y="272.10" font-size="2.35" text-anchor="start" class="txt">Kranz (M = 3,5 mm), Nabe mit</text>
<text x="362.00" y="275.50" font-size="2.35" text-anchor="start" class="txt">K&#252;hleisen zuerst erstarren lassen.</text>
<text x="362.00" y="278.90" font-size="2.35" text-anchor="start" class="txt">Moduln: Nabe 2,7 &#183; Kranz 2,6 &#183;</text>
<text x="362.00" y="282.30" font-size="2.35" text-anchor="start" class="txt">Steg 2,5 mm.</text>
</svg>